<svg xmlns="http://www.w3.org/2000/svg" fill-rule="evenodd" stroke-linejoin="round" stroke-miterlimit="2" clip-rule="evenodd" viewBox="0 0 356 356" id="salary">
  <path fill="url(#a)" d="M326.505 271.935H29.05V144.968a35.517 35.517 0 0 1 17.652-30.695l114.545-66.661a32.865 32.865 0 0 1 33.062 0l114.545 66.661a35.516 35.516 0 0 1 17.651 30.695v126.967Z"></path>
  <path fill="url(#b)" d="M326.505 271.935H29.05V150.457a35.517 35.517 0 0 1 24.677-33.82l114.021-36.542a32.858 32.858 0 0 1 20.06 0l114.021 36.542c14.702 4.712 24.676 18.382 24.676 33.82v121.478Z"></path>
  <path fill="url(#c)" d="M52.773 102.618h250.01v167.001H52.773z"></path>
  <path fill="url(#d)" d="M244.895 124.545c0 19.848 16.113 35.961 35.961 35.961v86.033l-1.154 1.154H75.854s-1.154-.089-1.154-1.19v-85.997c19.847 0 35.961-16.113 35.961-35.961h134.234Z"></path>
  <path fill="url(#e)" d="M230.926 141.212c5.228 15.649 17.614 28.035 33.264 33.263v56.551H91.366v-56.551c15.65-5.228 28.036-17.614 33.264-33.264l106.296.001Z"></path>
  <circle cx="177.778" cy="184" r="29.906" fill="url(#f)"></circle>
  <path fill="url(#g)" d="m326.505 177.49-148.727 58.418L29.05 177.49v99.399a35.515 35.515 0 0 0 35.515 35.515H290.99a35.516 35.516 0 0 0 35.515-35.515V177.49Z"></path>
  <path fill="url(#h)" d="m302.783 186.808-125.005 49.1-125.005-49.1v80.494a35.514 35.514 0 0 0 35.515 35.515h178.98a35.518 35.518 0 0 0 35.515-35.515v-80.494Z"></path>
  <defs>
    <linearGradient id="a" x1="0" x2="1" y1="0" y2="0" gradientTransform="rotate(90 70.286 107.492)scale(238.981)" gradientUnits="userSpaceOnUse">
      <stop offset="0" stop-color="#efe0e0"></stop>
      <stop offset=".6" stop-color="#eadbdb"></stop>
      <stop offset=".81" stop-color="#ded0d0"></stop>
      <stop offset="1" stop-color="#d1c5c5"></stop>
    </linearGradient>
    <linearGradient id="b" x1="0" x2="1" y1="0" y2="0" gradientTransform="rotate(90 70.286 107.492)scale(238.981)" gradientUnits="userSpaceOnUse">
      <stop offset="0" stop-color="#efe0e0"></stop>
      <stop offset="1" stop-color="#d1c5c5"></stop>
    </linearGradient>
    <linearGradient id="c" x1="0" x2="1" y1="0" y2="0" gradientTransform="rotate(34.043 -141.103 137.225)scale(298.316)" gradientUnits="userSpaceOnUse">
      <stop offset="0" stop-color="#47b4c2"></stop>
      <stop offset="1" stop-color="#1c8290"></stop>
    </linearGradient>
    <linearGradient id="d" x1="0" x2="1" y1="0" y2="0" gradientTransform="rotate(30.761 -194.893 212.59)scale(232.847)" gradientUnits="userSpaceOnUse">
      <stop offset="0" stop-color="#efe0e0"></stop>
      <stop offset="1" stop-color="#d1c5c5"></stop>
    </linearGradient>
    <linearGradient id="e" x1="0" x2="1" y1="0" y2="0" gradientTransform="rotate(28.017 -262.084 304.232)scale(191.5817)" gradientUnits="userSpaceOnUse">
      <stop offset="0" stop-color="#efe0e0"></stop>
      <stop offset=".58" stop-color="#e9dbdb"></stop>
      <stop offset=".8" stop-color="#ddd0d0"></stop>
      <stop offset="1" stop-color="#d1c5c5"></stop>
    </linearGradient>
    <linearGradient id="f" x1="0" x2="1" y1="0" y2="0" gradientTransform="rotate(37.013 -168.002 311.738)scale(61.9019)" gradientUnits="userSpaceOnUse">
      <stop offset="0" stop-color="#fe9b31"></stop>
      <stop offset="1" stop-color="#f9591b"></stop>
    </linearGradient>
    <linearGradient id="g" x1="0" x2="1" y1="0" y2="0" gradientTransform="rotate(24.353 -395.927 153.604)scale(331.043)" gradientUnits="userSpaceOnUse">
      <stop offset="0" stop-color="#fed531"></stop>
      <stop offset="1" stop-color="#f58c07"></stop>
    </linearGradient>
    <linearGradient id="h" x1="0" x2="1" y1="0" y2="0" gradientTransform="rotate(23.067 -456.09 234.958)scale(320.385)" gradientUnits="userSpaceOnUse">
      <stop offset="0" stop-color="#fed531"></stop>
      <stop offset=".49" stop-color="#fcc226"></stop>
      <stop offset="1" stop-color="#f58c07"></stop>
    </linearGradient>
  </defs>
</svg>
